<svg width="42" height="52" viewBox="0 0 42 52" fill="none" xmlns="http://www.w3.org/2000/svg">
<path d="M20.9997 0.166656C13.8774 0.166656 8.08301 5.96107 8.08301 13.0833V18.25H5.49967C2.65026 18.25 0.333008 20.5672 0.333008 23.4167V46.6667C0.333008 49.5161 2.65026 51.8333 5.49967 51.8333H36.4997C39.3491 51.8333 41.6663 49.5161 41.6663 46.6667V23.4167C41.6663 20.5672 39.3491 18.25 36.4997 18.25H33.9163V13.0833C33.9163 5.96107 28.1219 0.166656 20.9997 0.166656ZM13.2497 13.0833C13.2497 8.81049 16.7268 5.33332 20.9997 5.33332C25.2725 5.33332 28.7497 8.81049 28.7497 13.0833V18.25H13.2497V13.0833ZM36.5048 46.6667H23.583V40.7818C25.1201 39.8854 26.1663 38.2372 26.1663 36.3333C26.1663 33.4839 23.8491 31.1667 20.9997 31.1667C18.1503 31.1667 15.833 33.4839 15.833 36.3333C15.833 38.2347 16.8793 39.8854 18.4163 40.7818V46.6667H5.49967V23.4167H36.4997L36.5048 46.6667Z" fill="#0158D3"/>
</svg>
