<svg width="23" height="21" viewBox="0 0 23 21" fill="none" xmlns="http://www.w3.org/2000/svg">
<path fill-rule="evenodd" clip-rule="evenodd" d="M11.0833 0C4.95979 0 1.61766e-06 4.81772 1.61766e-06 10.7658C-0.00125547 13.0259 0.730187 15.2289 2.09056 17.0624C3.45093 18.8959 5.37115 20.2668 7.57878 20.9805C8.13295 21.0741 8.34021 20.7512 8.34021 20.468C8.34021 20.2129 8.3258 19.3656 8.3258 18.4634C5.54167 18.9619 4.82125 17.8046 4.59958 17.1984C4.47434 16.8884 3.93458 15.9335 3.46354 15.6772C3.07563 15.4759 2.52146 14.9774 3.44913 14.9645C4.3225 14.9505 4.94538 15.7451 5.15375 16.068C6.15125 17.6958 7.74503 17.2383 8.38122 16.9562C8.47875 16.2564 8.76913 15.786 9.08833 15.5168C6.62229 15.2477 4.04542 14.3186 4.04542 10.2006C4.04542 9.02932 4.47434 8.06147 5.18146 7.30678C5.07063 7.03763 4.68271 5.93414 5.29229 4.45383C5.29229 4.45383 6.21997 4.17177 8.34021 5.55841C9.24246 5.31516 10.1747 5.19274 11.111 5.19452C12.0531 5.19452 12.9952 5.3151 13.8819 5.55733C16.001 4.15777 16.9298 4.45491 16.9298 4.45491C17.5394 5.93521 17.1515 7.03871 17.0406 7.30786C17.7466 8.06147 18.1767 9.0164 18.1767 10.2006C18.1767 14.3326 15.5865 15.2477 13.1205 15.5168C13.5217 15.8527 13.8686 16.4987 13.8686 17.5085C13.8686 18.9479 13.8542 20.1052 13.8542 20.4691C13.8542 20.7512 14.0625 21.0871 14.6167 20.9794C16.8168 20.2579 18.7285 18.8844 20.0829 17.0522C21.4373 15.22 22.166 13.0214 22.1667 10.7658C22.1667 4.81772 17.2069 0 11.0833 0Z" fill="#1B1B1B"/>
</svg>
