<svg width="21" height="21" viewBox="0 0 21 21" fill="none" xmlns="http://www.w3.org/2000/svg">
<path fill-rule="evenodd" clip-rule="evenodd" d="M21 10.5C21 16.2986 16.2986 21 10.5 21C4.70138 21 0 16.2986 0 10.5C0 4.70138 4.70138 0 10.5 0C16.2986 0 21 4.70138 21 10.5ZM10.8763 7.75163C9.85513 8.176 7.81375 9.05538 4.753 10.3889C4.256 10.5866 3.99525 10.78 3.97163 10.969C3.93138 11.2893 4.33213 11.4152 4.87638 11.5859C4.95075 11.6095 5.02775 11.6331 5.1065 11.6594C5.64287 11.8335 6.36388 12.0374 6.73838 12.0452C7.07875 12.0522 7.4585 11.9123 7.87763 11.6252C10.7371 9.69413 12.2133 8.7185 12.306 8.6975C12.3716 8.68262 12.4626 8.66337 12.5239 8.7185C12.5851 8.77275 12.579 8.876 12.5729 8.904C12.5326 9.07288 10.9629 10.5333 10.1491 11.2893C9.89538 11.5246 9.716 11.6918 9.67925 11.7303C9.597 11.8151 9.513 11.8965 9.4325 11.9744C8.93375 12.4539 8.561 12.8144 9.4535 13.4024C9.88225 13.685 10.2252 13.9186 10.5674 14.1514C10.941 14.406 11.3138 14.6597 11.7968 14.9765C11.9193 15.057 12.0365 15.1401 12.1511 15.2215C12.586 15.5321 12.9771 15.8104 13.4601 15.7666C13.7401 15.7404 14.0306 15.477 14.1776 14.6904C14.525 12.8301 15.2092 8.80163 15.3676 7.14088C15.3773 7.00299 15.3714 6.86445 15.3501 6.72788C15.3374 6.61756 15.2837 6.51606 15.1996 6.4435C15.0745 6.34113 14.8802 6.31925 14.7928 6.321C14.3981 6.328 13.7926 6.53888 10.8763 7.75163Z" fill="#23C7EB"/>
</svg>
