<svg width="45" height="45" viewBox="0 0 45 45" fill="none" xmlns="http://www.w3.org/2000/svg">
<circle cx="22.5" cy="22.5" r="22.5" fill="#2F88FF"/>
<path d="M22.999 12C20.242 12 17.999 14.243 17.999 17V19H16.999C15.896 19 14.999 19.897 14.999 21V30C14.999 31.103 15.896 32 16.999 32H28.999C30.102 32 30.999 31.103 30.999 30V21C30.999 19.897 30.102 19 28.999 19H27.999V17C27.999 14.243 25.756 12 22.999 12ZM19.999 17C19.999 15.346 21.345 14 22.999 14C24.653 14 25.999 15.346 25.999 17V19H19.999V17ZM29.001 30H23.999V27.722C24.594 27.375 24.999 26.737 24.999 26C24.999 24.897 24.102 24 22.999 24C21.896 24 20.999 24.897 20.999 26C20.999 26.736 21.404 27.375 21.999 27.722V30H16.999V21H28.999L29.001 30Z" fill="white"/>
</svg>
